<svg xmlns="http://www.w3.org/2000/svg" viewBox="0 0 120 120" width="120" height="120">
<defs><filter id="p" x="-25%" y="-25%" width="150%" height="150%" color-interpolation-filters="sRGB"><feDropShadow dx="1.2" dy="2.2" stdDeviation="1.1" flood-color="#5a3a22" flood-opacity="0.3"/></filter></defs>
<polygon points="48,82 56,82 56,97 49,97" fill="#d9608a" filter="url(#p)"/>
<polygon points="72,82 80,82 80,97 73,97" fill="#d9608a" filter="url(#p)"/>
<polygon points="98,56 101,48 107,44 112,47 112,54 107,57 105,53 108,50 106,48 103,51 102,58" fill="#e0628a" filter="url(#p)"/>
<polygon points="64,35 78,37 90,43 97,52 100,62 97,72 90,81 78,87 64,89 50,87 38,81 31,72 28,62 31,52 38,43 50,37" fill="#ef7aa0" filter="url(#p)"/>
<polygon points="40,79 52,84 76,84 90,78 88,81 78,86 64,88 50,86" fill="#d9608a"/>
<polygon points="44,42 56,38 72,37 60,43 48,50" fill="#f7b3c8" filter="url(#p)"/>
<polygon points="36,80 45,80 45,99 37,99" fill="#ef7aa0" filter="url(#p)"/>
<polygon points="82,80 91,80 90,99 83,99" fill="#ef7aa0" filter="url(#p)"/>
<polygon points="42,40 30,40 22,45 17,52 16,62 17,72 24,78 36,80 46,72" fill="#ef7aa0" filter="url(#p)"/>
<polygon points="28,46 31,30 46,41" fill="#d9608a" filter="url(#p)"/>
<circle cx="14" cy="62" r="7" fill="#f7b3c8" filter="url(#p)"/>
<circle cx="12" cy="59.5" r="1.6" fill="#c24f78"/>
<circle cx="12" cy="64.5" r="1.6" fill="#c24f78"/>
</svg>
